<svg width="2253" height="512" viewBox="0 0 2253 512" fill="none" xmlns="http://www.w3.org/2000/svg">
<path d="M740.5 413.6C733.7 402.1 725.8 389.2 717 374.9C708.2 360.6 698.6 345.8 688.4 330.4C678.2 315 667.5 299.4 656.5 283.6C645.5 267.8 634.5 252.5 623.7 237.7C612.8 223 602.3 209.1 592 196C581.8 183 572.3 171.5 563.6 161.5V413.4H519.4V90.9004H555.3C569.9 106.4 585.5 124.5 602.1 145.2C618.7 165.9 635.2 187.1 651.5 209C667.8 230.9 683.2 252.4 697.6 273.5C712 294.6 724.2 313.4 734.2 329.8V90.9004H778.4V413.6H740.5Z" fill="url(#paint0_radial_305_221)"/>
<path d="M1069.3 292.6C1069.3 311.9 1066.5 329.2 1060.9 344.8C1055.3 360.3 1047.5 373.7 1037.4 384.8C1027.3 396 1015.3 404.6 1001.3 410.6C987.3 416.7 972.1 419.7 955.7 419.7C939.3 419.7 924 416.7 910.1 410.6C896.1 404.5 884.1 395.9 874 384.8C863.9 373.6 856.1 360.3 850.5 344.8C844.9 329.3 842.1 311.9 842.1 292.6C842.1 273.3 844.9 256.4 850.5 240.7C856.1 225 863.9 211.6 874 200.4C884.1 189.2 896.1 180.6 910.1 174.6C924.1 168.5 939.3 165.5 955.7 165.5C972.1 165.5 987.4 168.5 1001.3 174.6C1015.3 180.7 1027.3 189.3 1037.4 200.4C1047.5 211.6 1055.3 225 1060.9 240.7C1066.5 256.3 1069.3 273.6 1069.3 292.6ZM1024.1 292.6C1024.1 265.3 1018 243.6 1005.7 227.6C993.4 211.6 976.7 203.6 955.6 203.6C934.5 203.6 917.8 211.6 905.5 227.6C893.2 243.6 887.1 265.2 887.1 292.6C887.1 320 893.2 341.6 905.5 357.6C917.8 373.6 934.4 381.6 955.6 381.6C976.8 381.6 993.4 373.6 1005.7 357.6C1018 341.5 1024.1 319.9 1024.1 292.6Z" fill="url(#paint1_radial_305_221)"/>
<path d="M1219.7 166.4C1223.4 166.4 1227.7 166.6 1232.5 167.1C1237.3 167.6 1242 168.2 1246.7 169C1251.4 169.8 1255.6 170.6 1259.5 171.3C1263.4 172.1 1266.3 172.8 1268.1 173.4L1260.6 211.1C1257.2 209.9 1251.5 208.4 1243.6 206.7C1235.7 205 1225.5 204.1 1213.1 204.1C1200.7 204.1 1197 205 1189.1 206.7C1181.2 208.4 1176 209.6 1173.5 210.2V413.7H1130.2V181.7C1140.4 178 1153.2 174.5 1168.4 171.2C1183.7 168 1200.7 166.4 1219.7 166.4Z" fill="url(#paint2_radial_305_221)"/>
<path d="M1353.3 182.2C1358.6 178.8 1366.6 175.2 1377.3 171.5C1388 167.8 1400.4 165.9 1414.3 165.9C1428.2 165.9 1447.1 169 1460.6 175.2C1474.1 181.4 1485.5 190.1 1494.8 201.3C1504.1 212.5 1511.2 225.8 1516 241.3C1520.8 256.8 1523.2 273.9 1523.2 292.5C1523.2 311.1 1520.3 329.7 1514.6 345.4C1508.9 361.1 1500.7 374.4 1490.2 385.2C1479.6 396.1 1466.9 404.5 1452 410.3C1437.1 416.1 1420.3 419.1 1401.7 419.1C1383.1 419.1 1363.7 417.7 1348.1 414.9C1332.6 412.1 1319.8 409.3 1309.9 406.5V59.7002L1353.2 52.2002V182.2H1353.3ZM1353.3 375.9C1357.6 377.1 1363.8 378.3 1371.7 379.4C1379.6 380.5 1389.5 381 1401.3 381C1424.6 381 1443.2 373.3 1457.2 357.9C1471.2 342.5 1478.2 320.7 1478.2 292.5C1478.2 264.3 1477 268.4 1474.5 257.6C1472 246.7 1468 237.3 1462.4 229.4C1456.8 221.5 1449.6 215.3 1440.7 210.8C1431.9 206.3 1421.2 204 1408.8 204C1396.4 204 1386.1 206 1376.2 210.1C1366.3 214.1 1358.7 218.3 1353.4 222.7V375.9H1353.3Z" fill="url(#paint3_radial_305_221)"/>
<path d="M1662.5 165.4C1679.9 165.4 1694.6 167.7 1706.5 172.2C1718.4 176.7 1728.1 183.1 1735.4 191.3C1742.7 199.5 1747.9 209.3 1751 220.6C1754.1 231.9 1755.7 244.4 1755.7 258.1V409.4C1752 410 1746.8 410.9 1740.1 412C1733.4 413.1 1725.9 414.1 1717.5 415C1709.1 415.9 1700 416.8 1690.3 417.6C1680.5 418.4 1670.8 418.8 1661.2 418.8C1647.5 418.8 1635 417.4 1623.5 414.6C1612 411.8 1602.1 407.4 1593.7 401.3C1585.3 395.2 1578.8 387.3 1574.1 377.3C1569.4 367.4 1567.1 355.4 1567.1 341.4C1567.1 327.4 1569.8 316.6 1575.2 306.9C1580.6 297.3 1588 289.5 1597.3 283.6C1606.6 277.7 1617.5 273.4 1629.9 270.6C1642.3 267.8 1655.4 266.4 1669 266.4C1682.6 266.4 1677.8 266.6 1682.5 267.1C1687.2 267.6 1691.6 268.2 1695.8 269C1700 269.8 1703.6 270.5 1706.7 271.1C1709.8 271.7 1712 272.2 1713.2 272.5V260.4C1713.2 253.3 1712.4 246.2 1710.9 239.2C1709.3 232.2 1706.5 226 1702.5 220.6C1698.5 215.2 1693 210.8 1686 207.6C1679 204.3 1669.9 202.7 1658.8 202.7C1647.7 202.7 1632 203.7 1621.3 205.7C1610.6 207.7 1602.6 209.8 1597.3 212L1592.2 176.1C1597.8 173.6 1607.1 171.2 1620.1 168.9C1633.1 166.6 1647.3 165.4 1662.5 165.4ZM1666.3 382.4C1676.5 382.4 1685.6 382.2 1693.5 381.7C1701.4 381.2 1708 380.4 1713.3 379.1V307C1710.2 305.5 1705.2 304.1 1698.2 303C1691.2 301.9 1682.8 301.4 1672.8 301.4C1662.8 301.4 1659.4 301.9 1652.1 302.8C1644.8 303.7 1638.1 305.7 1632.1 308.6C1626 311.6 1621 315.6 1617 320.7C1613 325.8 1610.9 332.6 1610.9 341C1610.9 356.5 1615.9 367.3 1625.8 373.4C1635.7 379.4 1649.2 382.4 1666.3 382.4Z" fill="url(#paint4_radial_305_221)"/>
<path d="M1905.6 165.4C1923 165.4 1937.7 167.7 1949.6 172.2C1961.5 176.7 1971.2 183.1 1978.5 191.3C1985.8 199.5 1991 209.3 1994.1 220.6C1997.2 231.9 1998.8 244.4 1998.8 258.1V409.4C1995.1 410 1989.9 410.9 1983.2 412C1976.5 413.1 1969 414.1 1960.6 415C1952.2 415.9 1943.1 416.8 1933.4 417.6C1923.6 418.4 1913.9 418.8 1904.3 418.8C1890.6 418.8 1878.1 417.4 1866.6 414.6C1855.1 411.8 1845.2 407.4 1836.8 401.3C1828.4 395.2 1821.9 387.3 1817.2 377.3C1812.5 367.4 1810.2 355.4 1810.2 341.4C1810.2 327.4 1812.9 316.6 1818.3 306.9C1823.7 297.3 1831.1 289.5 1840.4 283.6C1849.7 277.7 1860.6 273.4 1873 270.6C1885.4 267.8 1898.5 266.4 1912.1 266.4C1925.7 266.4 1920.9 266.6 1925.6 267.1C1930.3 267.6 1934.7 268.2 1938.9 269C1943.1 269.8 1946.7 270.5 1949.8 271.1C1952.9 271.7 1955.1 272.2 1956.3 272.5V260.4C1956.3 253.3 1955.5 246.2 1954 239.2C1952.4 232.2 1949.6 226 1945.6 220.6C1941.6 215.2 1936.1 210.8 1929.1 207.6C1922.1 204.3 1913 202.7 1901.9 202.7C1890.8 202.7 1875.1 203.7 1864.4 205.7C1853.7 207.7 1845.7 209.8 1840.4 212L1835.3 176.1C1840.9 173.6 1850.2 171.2 1863.2 168.9C1876.2 166.6 1890.4 165.4 1905.6 165.4ZM1909.4 382.4C1919.6 382.4 1928.7 382.2 1936.6 381.7C1944.5 381.2 1951.1 380.4 1956.4 379.1V307C1953.3 305.5 1948.3 304.1 1941.3 303C1934.3 301.9 1925.9 301.4 1915.9 301.4C1905.9 301.4 1902.5 301.9 1895.2 302.8C1887.9 303.7 1881.2 305.7 1875.2 308.6C1869.1 311.6 1864.1 315.6 1860.1 320.7C1856.1 325.8 1854 332.6 1854 341C1854 356.5 1859 367.3 1868.9 373.4C1878.8 379.4 1892.3 382.4 1909.4 382.4Z" fill="url(#paint5_radial_305_221)"/>
<path d="M2126.8 382.4C2144.5 382.4 2157.6 380.1 2166.2 375.4C2174.7 370.7 2179 363.3 2179 353C2179 342.7 2174.8 334.1 2166.4 327.9C2158 321.7 2144.2 314.7 2125 306.9C2115.7 303.2 2106.8 299.4 2098.2 295.5C2089.7 291.6 2082.3 287 2076.1 281.8C2069.9 276.5 2064.9 270.2 2061.2 262.7C2057.5 255.2 2055.6 246.1 2055.6 235.2C2055.6 213.8 2063.5 196.8 2079.3 184.2C2095.1 171.6 2116.7 165.3 2144 165.3C2171.3 165.3 2157.7 165.7 2164.5 166.5C2171.3 167.3 2177.7 168.2 2183.6 169.3C2189.5 170.4 2194.7 171.6 2199.2 172.8C2203.7 174 2207.2 175.1 2209.7 176.1L2201.8 213.4C2197.1 210.9 2189.8 208.4 2179.9 205.7C2170 203.1 2158 201.7 2144 201.7C2130 201.7 2121.3 204.1 2112.3 208.9C2103.3 213.7 2098.8 221.2 2098.8 231.5C2098.8 241.8 2099.8 241.4 2101.8 245.5C2103.8 249.5 2106.9 253.2 2111.1 256.4C2115.3 259.7 2120.5 262.7 2126.7 265.5C2132.9 268.3 2140.4 271.2 2149.1 274.3C2160.6 278.7 2170.8 282.9 2179.8 287.1C2188.8 291.3 2196.5 296.2 2202.9 301.8C2209.3 307.4 2214.1 314.1 2217.6 322.1C2221 330 2222.7 339.7 2222.7 351.2C2222.7 373.6 2214.4 390.5 2197.8 402C2181.2 413.5 2157.5 419.2 2126.8 419.2C2096.1 419.2 2088.6 417.4 2076.5 413.8C2064.4 410.2 2056.2 407.5 2051.8 405.7L2059.7 368.4C2064.7 370.3 2072.6 373.1 2083.5 376.8C2094.4 380.6 2108.8 382.4 2126.8 382.4Z" fill="url(#paint6_radial_305_221)"/>
<path d="M216.237 149.34C292.468 163.303 253.069 277.019 328 300.069" stroke="url(#paint7_linear_305_221)" stroke-width="46" stroke-miterlimit="10" stroke-linecap="round"/>
<path d="M212 300.67L263.363 189.68" stroke="url(#paint8_linear_305_221)" stroke-width="46" stroke-linecap="round"/>
<path d="M254.522 450L248.056 447.241C240.91 444.148 74 370.001 74 235.833V119.47C74 96.482 89.0577 76.1688 111.261 68.9797L255.457 22L399.739 68.9797C421.942 76.1688 436.915 96.482 437 119.47V235.833C437 388.809 268.473 445.486 261.242 447.827L254.522 450ZM255.457 59.3664L122.661 102.668C115.26 105.009 110.24 111.863 110.24 119.47V235.833C110.24 333.805 227.129 397.336 256.308 411.714C285.403 400.178 400.674 347.514 400.674 235.833V119.47C400.674 111.78 395.655 105.009 388.254 102.668L255.457 59.3664Z" fill="url(#paint9_linear_305_221)"/>
<defs>
<radialGradient id="paint0_radial_305_221" cx="0" cy="0" r="1" gradientUnits="userSpaceOnUse" gradientTransform="translate(648.9 252.25) scale(129.5 161.35)">
<stop stop-color="#05060E"/>
<stop offset="1" stop-color="#4E5BDD"/>
</radialGradient>
<radialGradient id="paint1_radial_305_221" cx="0" cy="0" r="1" gradientUnits="userSpaceOnUse" gradientTransform="translate(955.7 292.6) scale(113.6 127.1)">
<stop stop-color="#05060E"/>
<stop offset="1" stop-color="#4E5BDD"/>
</radialGradient>
<radialGradient id="paint2_radial_305_221" cx="0" cy="0" r="1" gradientUnits="userSpaceOnUse" gradientTransform="translate(1199.15 290.05) scale(68.95 123.65)">
<stop stop-color="#05060E"/>
<stop offset="1" stop-color="#4E5BDD"/>
</radialGradient>
<radialGradient id="paint3_radial_305_221" cx="0" cy="0" r="1" gradientUnits="userSpaceOnUse" gradientTransform="translate(1416.55 235.65) scale(106.65 183.45)">
<stop stop-color="#05060E"/>
<stop offset="1" stop-color="#4E5BDD"/>
</radialGradient>
<radialGradient id="paint4_radial_305_221" cx="0" cy="0" r="1" gradientUnits="userSpaceOnUse" gradientTransform="translate(1661.4 292.1) scale(94.3 126.7)">
<stop stop-color="#05060E"/>
<stop offset="1" stop-color="#4E5BDD"/>
</radialGradient>
<radialGradient id="paint5_radial_305_221" cx="0" cy="0" r="1" gradientUnits="userSpaceOnUse" gradientTransform="translate(1904.5 292.1) scale(94.3 126.7)">
<stop stop-color="#05060E"/>
<stop offset="1" stop-color="#4E5BDD"/>
</radialGradient>
<radialGradient id="paint6_radial_305_221" cx="0" cy="0" r="1" gradientUnits="userSpaceOnUse" gradientTransform="translate(2137.25 292.25) scale(85.45 126.95)">
<stop stop-color="#05060E"/>
<stop offset="1" stop-color="#4E5BDD"/>
</radialGradient>
<linearGradient id="paint7_linear_305_221" x1="272.118" y1="149.34" x2="272.118" y2="300.069" gradientUnits="userSpaceOnUse">
<stop offset="0.145" stop-color="#2A3177"/>
<stop offset="1" stop-color="#4E5BDD"/>
</linearGradient>
<linearGradient id="paint8_linear_305_221" x1="303.489" y1="271.92" x2="246.774" y2="128.05" gradientUnits="userSpaceOnUse">
<stop stop-color="#2A3177"/>
<stop offset="1" stop-color="#4E5BDD"/>
</linearGradient>
<linearGradient id="paint9_linear_305_221" x1="255.5" y1="22" x2="255.5" y2="450" gradientUnits="userSpaceOnUse">
<stop stop-color="#6366F1"/>
<stop offset="1" stop-color="#393B8B"/>
</linearGradient>
</defs>
</svg>
