<?xml version="1.0" encoding="UTF-8"?>
<svg id="Camada_1" xmlns="http://www.w3.org/2000/svg" version="1.1" viewBox="0 0 2252.7 512">
  <!-- Generator: Adobe Illustrator 29.0.1, SVG Export Plug-In . SVG Version: 2.1.0 Build 192)  -->
  <defs>
    <style>
      .st0 {
        fill: #6366f1;
      }

      .st1 {
        fill: #2a3177;
      }
    </style>
  </defs>
  <path class="st0" d="M219.9,512.2l-7.6-3.3c-8.4-3.7-204.6-92.4-204.6-252.9V116.8c0-27.5,17.7-51.8,43.8-60.4L221,.2l169.6,56.2c26.1,8.6,43.7,32.9,43.8,60.4v139.2c0,183-198.1,250.8-206.6,253.6l-7.9,2.6ZM221,44.9l-156.1,51.8c-8.7,2.8-14.6,11-14.6,20.1v139.2c0,117.2,137.4,193.2,171.7,210.4,34.2-13.8,169.7-76.8,169.7-210.4V116.8c0-9.2-5.9-17.3-14.6-20.1l-156.1-51.8Z"/>
  <g>
    <path class="st1" d="M740.5,413.6c-6.8-11.5-14.7-24.4-23.5-38.7-8.8-14.3-18.4-29.1-28.6-44.5-10.2-15.4-20.9-31-31.9-46.8s-22-31.1-32.8-45.9c-10.9-14.7-21.4-28.6-31.7-41.7-10.2-13-19.7-24.5-28.4-34.5v251.9h-44.2V90.9h35.9c14.6,15.5,30.2,33.6,46.8,54.3s33.1,41.9,49.4,63.8c16.3,21.9,31.7,43.4,46.1,64.5,14.4,21.1,26.6,39.9,36.6,56.3V90.9h44.2v322.7h-37.9Z"/>
    <path class="st1" d="M1069.3,292.6c0,19.3-2.8,36.6-8.4,52.2-5.6,15.5-13.4,28.9-23.5,40-10.1,11.2-22.1,19.8-36.1,25.8-14,6.1-29.2,9.1-45.6,9.1s-31.7-3-45.6-9.1c-14-6.1-26-14.7-36.1-25.8-10.1-11.2-17.9-24.5-23.5-40s-8.4-32.9-8.4-52.2,2.8-36.2,8.4-51.9c5.6-15.7,13.4-29.1,23.5-40.3s22.1-19.8,36.1-25.8c14-6.1,29.2-9.1,45.6-9.1s31.7,3,45.6,9.1c14,6.1,26,14.7,36.1,25.8,10.1,11.2,17.9,24.6,23.5,40.3,5.6,15.6,8.4,32.9,8.4,51.9ZM1024.1,292.6c0-27.3-6.1-49-18.4-65-12.3-16-29-24-50.1-24s-37.8,8-50.1,24-18.4,37.6-18.4,65,6.1,49,18.4,65c12.3,16,28.9,24,50.1,24s37.8-8,50.1-24c12.3-16.1,18.4-37.7,18.4-65Z"/>
    <path class="st1" d="M1219.7,166.4c3.7,0,8,.2,12.8.7s9.5,1.1,14.2,1.9c4.7.8,8.9,1.6,12.8,2.3,3.9.8,6.8,1.5,8.6,2.1l-7.5,37.7c-3.4-1.2-9.1-2.7-17-4.4s-18.1-2.6-30.5-2.6-16.1.9-24,2.6c-7.9,1.7-13.1,2.9-15.6,3.5v203.5h-43.3v-232c10.2-3.7,23-7.2,38.2-10.5,15.3-3.2,32.3-4.8,51.3-4.8Z"/>
    <path class="st1" d="M1353.3,182.2c5.3-3.4,13.3-7,24-10.7s23.1-5.6,37-5.6,32.8,3.1,46.3,9.3,24.9,14.9,34.2,26.1c9.3,11.2,16.4,24.5,21.2,40,4.8,15.5,7.2,32.6,7.2,51.2s-2.9,37.2-8.6,52.9c-5.7,15.7-13.9,29-24.4,39.8-10.6,10.9-23.3,19.3-38.2,25.1s-31.7,8.8-50.3,8.8-38-1.4-53.6-4.2c-15.5-2.8-28.3-5.6-38.2-8.4V59.7l43.3-7.5v130h0ZM1353.3,375.9c4.3,1.2,10.5,2.4,18.4,3.5s17.8,1.6,29.6,1.6c23.3,0,41.9-7.7,55.9-23.1s21-37.2,21-65.4-1.2-24.1-3.7-34.9c-2.5-10.9-6.5-20.3-12.1-28.2s-12.8-14.1-21.7-18.6c-8.8-4.5-19.5-6.8-31.9-6.8s-22.7,2-32.6,6.1c-9.9,4-17.5,8.2-22.8,12.6v153.2h-.1Z"/>
    <path class="st1" d="M1662.5,165.4c17.4,0,32.1,2.3,44,6.8s21.6,10.9,28.9,19.1c7.3,8.2,12.5,18,15.6,29.3s4.7,23.8,4.7,37.5v151.3c-3.7.6-8.9,1.5-15.6,2.6s-14.2,2.1-22.6,3-17.5,1.8-27.2,2.6c-9.8.8-19.5,1.2-29.1,1.2-13.7,0-26.2-1.4-37.7-4.2-11.5-2.8-21.4-7.2-29.8-13.3-8.4-6.1-14.9-14-19.6-24-4.7-9.9-7-21.9-7-35.9s2.7-24.8,8.1-34.5c5.4-9.6,12.8-17.4,22.1-23.3,9.3-5.9,20.2-10.2,32.6-13s25.5-4.2,39.1-4.2,8.8.2,13.5.7,9.1,1.1,13.3,1.9c4.2.8,7.8,1.5,10.9,2.1s5.3,1.1,6.5,1.4v-12.1c0-7.1-.8-14.2-2.3-21.2-1.6-7-4.4-13.2-8.4-18.6-4-5.4-9.5-9.8-16.5-13-7-3.3-16.1-4.9-27.2-4.9s-26.8,1-37.5,3-18.7,4.1-24,6.3l-5.1-35.9c5.6-2.5,14.9-4.9,27.9-7.2s27.2-3.5,42.4-3.5ZM1666.3,382.4c10.2,0,19.3-.2,27.2-.7s14.5-1.3,19.8-2.6v-72.1c-3.1-1.5-8.1-2.9-15.1-4s-15.4-1.6-25.4-1.6-13.4.5-20.7,1.4c-7.3.9-14,2.9-20,5.8-6.1,3-11.1,7-15.1,12.1s-6.1,11.9-6.1,20.3c0,15.5,5,26.3,14.9,32.4,9.9,6,23.4,9,40.5,9Z"/>
    <path class="st1" d="M1905.6,165.4c17.4,0,32.1,2.3,44,6.8s21.6,10.9,28.9,19.1c7.3,8.2,12.5,18,15.6,29.3s4.7,23.8,4.7,37.5v151.3c-3.7.6-8.9,1.5-15.6,2.6s-14.2,2.1-22.6,3-17.5,1.8-27.2,2.6c-9.8.8-19.5,1.2-29.1,1.2-13.7,0-26.2-1.4-37.7-4.2-11.5-2.8-21.4-7.2-29.8-13.3-8.4-6.1-14.9-14-19.6-24-4.7-9.9-7-21.9-7-35.9s2.7-24.8,8.1-34.5c5.4-9.6,12.8-17.4,22.1-23.3,9.3-5.9,20.2-10.2,32.6-13s25.5-4.2,39.1-4.2,8.8.2,13.5.7,9.1,1.1,13.3,1.9c4.2.8,7.8,1.5,10.9,2.1s5.3,1.1,6.5,1.4v-12.1c0-7.1-.8-14.2-2.3-21.2-1.6-7-4.4-13.2-8.4-18.6-4-5.4-9.5-9.8-16.5-13-7-3.3-16.1-4.9-27.2-4.9s-26.8,1-37.5,3-18.7,4.1-24,6.3l-5.1-35.9c5.6-2.5,14.9-4.9,27.9-7.2s27.2-3.5,42.4-3.5ZM1909.4,382.4c10.2,0,19.3-.2,27.2-.7s14.5-1.3,19.8-2.6v-72.1c-3.1-1.5-8.1-2.9-15.1-4s-15.4-1.6-25.4-1.6-13.4.5-20.7,1.4c-7.3.9-14,2.9-20,5.8-6.1,3-11.1,7-15.1,12.1s-6.1,11.9-6.1,20.3c0,15.5,5,26.3,14.9,32.4,9.9,6,23.4,9,40.5,9Z"/>
    <path class="st1" d="M2126.8,382.4c17.7,0,30.8-2.3,39.4-7,8.5-4.7,12.8-12.1,12.8-22.4s-4.2-18.9-12.6-25.1c-8.4-6.2-22.2-13.2-41.4-21-9.3-3.7-18.2-7.5-26.8-11.4-8.5-3.9-15.9-8.5-22.1-13.7-6.2-5.3-11.2-11.6-14.9-19.1s-5.6-16.6-5.6-27.5c0-21.4,7.9-38.4,23.7-51s37.4-18.9,64.7-18.9,13.7.4,20.5,1.2,13.2,1.7,19.1,2.8c5.9,1.1,11.1,2.3,15.6,3.5s8,2.3,10.5,3.3l-7.9,37.3c-4.7-2.5-12-5-21.9-7.7-9.9-2.6-21.9-4-35.9-4s-22.7,2.4-31.7,7.2-13.5,12.3-13.5,22.6,1,9.9,3,14c2,4,5.1,7.7,9.3,10.9,4.2,3.3,9.4,6.3,15.6,9.1,6.2,2.8,13.7,5.7,22.4,8.8,11.5,4.4,21.7,8.6,30.7,12.8,9,4.2,16.7,9.1,23.1,14.7,6.4,5.6,11.2,12.3,14.7,20.3,3.4,7.9,5.1,17.6,5.1,29.1,0,22.4-8.3,39.3-24.9,50.8-16.6,11.5-40.3,17.2-71,17.2s-38.2-1.8-50.3-5.4-20.3-6.3-24.7-8.1l7.9-37.3c5,1.9,12.9,4.7,23.8,8.4,10.9,3.8,25.3,5.6,43.3,5.6Z"/>
  </g>
</svg>